<svg xmlns="http://www.w3.org/2000/svg" viewBox="0 0 200 200" role="img" aria-label="Panier de courses">
  <path d="M40 95h120l-12 75a8 8 0 0 1-8 7H60a8 8 0 0 1-8-7L40 95z" fill="#FFFFFF" opacity="0.97"/>
  <path d="M40 95h120" stroke="#A91F1F" stroke-width="3" opacity="0.45"/>
  <path d="M55 95c0-22 15-40 45-40s45 18 45 40" fill="none" stroke="#F4C542" stroke-width="7" stroke-linecap="round"/>
  <circle cx="78" cy="80" r="20" fill="#F77F00"/>
  <circle cx="112" cy="72" r="24" fill="#F4C542"/>
  <circle cx="138" cy="86" r="16" fill="#D62828" stroke="#FFFFFF" stroke-width="2"/>
  <rect x="60" y="115" width="22" height="34" rx="4" fill="#A91F1F"/>
  <rect x="92" y="120" width="18" height="29" rx="4" fill="#F77F00"/>
  <rect x="120" y="112" width="20" height="37" rx="4" fill="#FFFFFF"/>
  <circle cx="130" cy="124" r="5" fill="#D62828"/>
</svg>
